<?xml version="1.0" encoding="UTF-8" standalone="no"?>
<!-- Created with Inkscape (http://www.inkscape.org/) -->

<svg
   width="1080"
   height="1080"
   viewBox="37.4711 61.9750 153.3138 153.3138"
   version="1.1"
   id="svg1"
   xml:space="preserve"
   xmlns:xlink="http://www.w3.org/1999/xlink"
   xmlns="http://www.w3.org/2000/svg"
   xmlns:svg="http://www.w3.org/2000/svg"><defs
     id="defs1"><linearGradient
       id="linearGradient204"><stop
         style="stop-color:#e0a13b;stop-opacity:1;"
         offset="0"
         id="stop200" /><stop
         style="stop-color:#f8c960;stop-opacity:1;"
         offset="0.28226694"
         id="stop201" /><stop
         style="stop-color:#fad364;stop-opacity:1"
         offset="0.49854189"
         id="stop202" /><stop
         style="stop-color:#fad15e;stop-opacity:1;"
         offset="0.80489087"
         id="stop203" /><stop
         style="stop-color:#e1a74a;stop-opacity:1;"
         offset="1"
         id="stop204" /></linearGradient><linearGradient
       id="linearGradient198"><stop
         style="stop-color:#e0a13b;stop-opacity:1;"
         offset="0"
         id="stop194" /><stop
         style="stop-color:#f8c960;stop-opacity:1;"
         offset="0.11770111"
         id="stop195" /><stop
         style="stop-color:#fce9aa;stop-opacity:1;"
         offset="0.36230153"
         id="stop196" /><stop
         style="stop-color:#fad15e;stop-opacity:1;"
         offset="0.87224841"
         id="stop197" /><stop
         style="stop-color:#e1a74a;stop-opacity:1;"
         offset="0.9585492"
         id="stop198" /></linearGradient><linearGradient
       id="linearGradient188"><stop
         style="stop-color:#e0a13b;stop-opacity:1;"
         offset="0"
         id="stop188" /><stop
         style="stop-color:#f8c960;stop-opacity:1;"
         offset="0.28226694"
         id="stop192" /><stop
         style="stop-color:#fdf7d1;stop-opacity:1;"
         offset="0.52895969"
         id="stop191" /><stop
         style="stop-color:#fad15e;stop-opacity:1;"
         offset="0.80489087"
         id="stop190" /><stop
         style="stop-color:#e1a74a;stop-opacity:1;"
         offset="1"
         id="stop189" /></linearGradient><linearGradient
       id="swatch73"><stop
         style="stop-color:#000000;stop-opacity:1;"
         offset="0"
         id="stop73" /></linearGradient><linearGradient
       id="swatch72"><stop
         style="stop-color:#000000;stop-opacity:1;"
         offset="0"
         id="stop72" /></linearGradient><linearGradient
       id="swatch71"><stop
         style="stop-color:#000000;stop-opacity:0.31761006;"
         offset="0"
         id="stop71" /></linearGradient><linearGradient
       xlink:href="#linearGradient198"
       id="linearGradient189"
       x1="162.88533"
       y1="85.190315"
       x2="69.21228"
       y2="125.2273"
       gradientUnits="userSpaceOnUse" /><linearGradient
       xlink:href="#linearGradient188"
       id="linearGradient194"
       x1="69.21228"
       y1="125.2273"
       x2="176.0399"
       y2="137.57515"
       gradientUnits="userSpaceOnUse" /><linearGradient
       xlink:href="#linearGradient204"
       id="linearGradient200"
       x1="46.71072"
       y1="87.744606"
       x2="157.90056"
       y2="200.74615"
       gradientUnits="userSpaceOnUse" /></defs><g
     id="layer1"
     style="display:inline"><g
       id="g136"
       style="display:inline;opacity:1;fill:url(#linearGradient189);stroke:url(#linearGradient194);fill-opacity:1;stroke-opacity:0.52066118;stroke-width:0.2;stroke-dasharray:none"><path
         id="path4"
         style="display:inline;opacity:1;fill:url(#linearGradient189);fill-opacity:1;stroke:url(#linearGradient194);stroke-width:0.2;stroke-dasharray:none"
         d="m 104.28149,91.180481 -0.17053,0.219625 -0.0248,7.140132 0.26872,0.194821 0.41445,0.01654 0.30127,-0.195337 0.016,-7.148401 -0.18707,-0.227376 z m -0.0651,7.595402 -0.39016,0.08113 -0.47181,0.227893 -0.46353,0.480074 -0.34158,0.55294 -0.11369,0.76429 0.18707,0.82114 0.3576,0.62632 0.52038,0.36587 0.74827,0.17932 h 0.77257 l 0.65887,-0.15451 0.52865,-0.45579 0.36587,-0.52038 0.14624,-0.61805 -0.0568,-0.71572 -0.23564,-0.568961 -0.35812,-0.52865 -0.48783,-0.341581 -0.52865,-0.154513 -0.38189,-0.03256 z m -2.25258,4.391467 v 1.25263 l 5.41621,0.0651 v -1.30122 z" /><path
         id="path246"
         style="display:inline;opacity:1;fill:url(#linearGradient189);fill-opacity:1;stroke:url(#linearGradient194);stroke-width:0.2;stroke-dasharray:none"
         d="m 102.17206,104.47528 -0.0114,0.19585 -5.492689,3.88555 -5.409489,4.27313 -0.03256,0.94309 1.837614,1.38286 0.130225,0.0977 0.08113,8.89661 -0.503845,0.26045 0.01602,0.82941 -3.627169,0.87798 v 0.99219 l -0.3576,0.19534 0.01602,5.36711 0.211874,0.0651 1.932181,0.007 0.643889,0.13798 -0.04599,4.16357 0.873848,-0.0233 0.223759,0.008 -0.08527,0.68213 -0.414445,2.00143 -2.41484,11.31714 -2.024165,9.98233 -1.173055,6.32572 -1.242302,6.34845 -0.851111,4.71547 -0.437182,2.89802 -0.09198,0.36845 -2.230872,0.50591 -0.183968,0.32194 0.04599,0.50592 0.160714,0.32194 0.06925,0.25322 -0.06925,2.18539 -5.313371,0.50591 -5.106148,0.87385 -0.138493,3.28921 0.02997,0.93896 1.073836,0.0651 0.0646,-1.98437 0.715718,-0.0326 -0.09715,1.91926 0.877982,-0.0651 -0.03256,-2.11408 0.703316,-0.015 -0.02325,2.0929 0.897103,-0.0687 -0.02274,-1.97818 h 0.666626 v 1.88619 l 0.874365,-0.0233 0.183969,-2.00091 3.772379,-0.25322 0.09198,2.07016 7.314282,-0.32194 4.094324,-0.13798 5.244641,-0.11524 8.464599,0.0233 8.90178,0.0227 h 3.35845 l 2.02417,0.092 9.64902,0.53226 0.0155,-1.90272 3.80597,0.11369 0.0816,2.1146 h 0.89452 l 0.0811,-1.8216 0.55294,0.016 0.0326,1.88671 0.89452,0.0326 0.0977,-1.83761 0.55294,0.032 0.0165,1.85415 h 0.91054 l 0.0165,-1.83813 0.45527,0.0331 0.0155,1.77302 0.86196,-0.0651 -0.032,-3.92018 -1.57768,-0.48782 -2.89543,-0.37414 -6.70192,-0.78703 v -2.32337 l 0.0894,-0.1757 0.0481,-0.72141 -0.29921,-0.25269 -2.00091,-0.64441 -0.87385,-3.61115 -1.37976,-6.90035 -2.04742,-10.74198 -1.88619,-9.43095 -1.26555,-6.37119 -1.44901,-7.47551 1.01234,-0.046 -0.11524,-3.91036 h 0.41393 l 2.30477,-0.24908 -0.0155,-5.48132 -0.0786,-1.4335 -3.67833,-0.58291 v -0.79737 l -0.65061,-0.27647 0.0811,-8.86406 1.59421,-1.2361 -0.0165,-1.02474 -0.19534,-0.53692 -5.2157,-3.9548 -3.87625,-2.94142 -1.3162,-1.10949 v -0.18397 z m 0.48576,11.65562 h 4.51032 v 5.9371 h -4.51032 z m -3.634924,0.14624 v 6.18309 l -2.999817,0.35398 v -6.02341 z m 11.867494,0 3.11764,0.51366 v 6.02341 l -3.11764,-0.35398 z m -12.376507,19.55385 -4.033862,44.0955 -0.04341,0.4873 -7.441923,0.92605 7.594368,-44.69805 1.784388,-0.5457 z m 12.888617,0 2.0836,0.2651 1.73632,0.5457 7.3918,44.49961 -7.24297,-0.92604 -0.0424,-0.48731 z m -10.12083,0.11213 h 7.56647 l 0.14882,1.80609 3.13883,42.49974 h -1.6924 -10.781773 -1.421619 l 2.920752,-42.49974 z m -3.041155,45.98996 h 13.895795 v 2.8789 H 98.239998 Z m 14.385165,0 h 0.42013 l 0.0444,2.8789 h -0.42064 z m 3.10214,0 9.7286,1.36788 v 2.43189 l -9.68209,-0.92087 z m -2.02107,0.004 h 0.42065 l 0.0444,2.87889 h -0.42064 z m 1.06092,0.0181 h 0.42013 l 0.0444,2.87889 h -0.42064 z m -17.619595,0.0202 h 0.42013 l 0.04444,2.87889 H 97.192 Z m -1.161169,0.006 h 0.420129 l 0.04444,2.8789 h -0.420646 z m -1.179256,0.0119 h 0.420646 l 0.04444,2.87889 h -0.420647 z m -0.49196,0.0124 -0.04703,2.8789 -9.709485,0.92139 v -2.43241 z" /><path
         id="path235"
         style="display:inline;opacity:1;fill:url(#linearGradient189);fill-opacity:1;stroke:url(#linearGradient194);stroke-width:0.2;stroke-dasharray:none"
         d="m 102.19738,137.74921 -0.0625,1.13482 h 5.99395 l -0.0625,-1.13482 z m 10.04848,1.00925 0.14986,1.49861 2.10892,0.21033 -0.19172,-1.49397 -1.75287,-0.19844 z m -14.598074,0.19843 -2.123901,0.21494 -0.196887,1.49396 2.166793,-0.21032 z m 4.455544,0.50695 -0.0568,1.02836 6.17017,-0.0222 -0.0553,-1.00614 z m 10.34149,1.28881 0.10903,1.08985 2.15439,0.21343 -0.14004,-1.09037 z m -15.001672,0.19844 -2.181779,0.2129 -0.143661,1.09038 2.213302,-0.21343 z m 4.572852,0.0987 -0.0563,1.02526 h 6.34586 l -0.0568,-1.02526 z m 10.58695,1.28829 0.10903,1.09037 2.20039,0.21756 -0.14005,-1.09192 z m -15.322066,0.19844 -2.229322,0.21601 -0.14366,1.09192 2.260844,-0.21756 z m 4.646746,0.11575 -0.0543,0.98961 h 6.51898 l -0.0553,-0.98961 z m 10.83396,1.27176 0.10904,1.09192 2.24534,0.21653 -0.13953,-1.08882 z m -15.644004,0.19844 -2.275313,0.21962 -0.143661,1.08883 2.306836,-0.21653 z m 4.723224,0.11369 -0.0553,1.002 h 6.6952 l -0.0558,-1.002 z m 11.07891,1.27537 0.10904,1.09141 2.29133,0.21911 -0.14004,-1.09193 z m -15.964398,0.19844 -2.322339,0.21859 -0.144177,1.09192 2.354378,-0.2191 z m 4.798158,0.10594 -0.0553,1.00562 h 6.86986 l -0.0553,-1.00562 z m 11.32489,1.28209 0.10904,1.09244 2.33629,0.21911 -0.14005,-1.08934 z m -16.286345,0.19844 -2.368331,0.2222 -0.144177,1.08934 2.400887,-0.2191 z m 4.874635,0.0997 -0.0558,1.01286 h 7.04505 l -0.0558,-1.01286 z m 11.56984,1.28933 0.10904,1.08985 2.38176,0.22118 -0.13952,-1.08934 z m -16.606739,0.19844 -2.415873,0.22169 -0.143144,1.08934 2.446879,-0.22118 z m 4.949569,0.0997 -0.0558,1.01286 h 7.22023 l -0.0558,-1.01286 z m 11.81582,1.28726 0.10903,1.09451 2.42724,0.21962 -0.14004,-1.0914 z m -16.92817,0.19844 -2.462382,0.22272 -0.143661,1.09141 2.493905,-0.21962 z m 5.02502,0.1018 -0.0553,1.01286 h 7.3949 l -0.0558,-1.01286 z m 12.06128,1.28933 0.10903,1.09089 2.47272,0.21859 -0.13953,-1.08727 z m -17.249081,0.19844 -2.509407,0.2222 -0.143144,1.08728 2.540413,-0.21859 z m 5.100461,0.0997 -0.0553,1.01286 h 7.57008 l -0.0558,-1.01286 z m 12.30726,1.28778 0.10904,1.09295 2.51819,0.22015 -0.14004,-1.09244 z m -17.570502,0.19844 -2.555399,0.22065 -0.144177,1.09244 2.587439,-0.22014 z m 5.175912,0.10128 -0.0553,1.01286 h 7.74526 l -0.0558,-1.01286 z m 12.55324,1.28829 0.10904,1.09554 2.56263,0.21291 -0.13953,-1.08624 z m -17.892449,0.19844 -2.601392,0.22221 -0.14366,1.08624 2.633431,-0.21291 z m 5.252389,0.10077 -0.0553,1.01286 h 7.92045 l -0.0558,-1.01286 z m 12.79871,1.29088 0.10903,1.09347 2.60811,0.21446 -0.14004,-1.09244 z m -18.21388,0.19844 -2.6479,0.21549 -0.144177,1.09244 2.679939,-0.21446 z m 5.32784,0.0982 -0.0553,1.01286 h 8.09563 l -0.0558,-1.01286 z m 13.04417,1.2914 0.10903,1.09088 2.6541,0.2186 -0.14004,-1.09244 z m -18.534791,0.19843 -2.694926,0.21704 -0.14366,1.09244 2.726965,-0.21859 z m 5.403801,0.0977 -0.0558,1.01286 h 8.27082 l -0.0563,-1.01286 z m 13.28963,1.28933 0.10904,1.09347 2.69906,0.21601 -0.13953,-1.08882 z m -18.856211,0.19844 -2.741952,0.22065 -0.143144,1.08883 2.772958,-0.21601 z m 5.479251,0.0997 -0.0558,1.01286 h 8.446 l -0.0563,-1.01286 z m 13.53561,1.28984 0.10852,1.08986 2.74453,0.21808 -0.14004,-1.08986 z m -19.177642,0.19844 -2.787944,0.21808 -0.14366,1.08985 2.819983,-0.21807 z m 5.554702,0.0997 -0.0558,1.01234 h 8.62118 l -0.0563,-1.01234 z m 13.78055,1.28622 0.10956,1.09503 2.79001,0.21807 -0.14005,-1.09295 z m -19.497516,0.19844 -2.834969,0.22014 -0.144177,1.09296 2.866491,-0.21807 z m 5.629626,0.10284 -0.0558,1.01234 h 8.79637 l -0.0563,-1.01234 z m 14.02654,1.28829 0.10904,1.09244 2.83548,0.21653 -0.13952,-1.08883 z m -19.818947,0.19844 -2.881995,0.22014 -0.14366,1.08882 2.913517,-0.21652 z m 5.705077,0.10077 -0.0558,1.01234 h 8.97155 l -0.0563,-1.01234 z m 14.272,1.28726 0.10904,1.0914 2.88096,0.21808 -0.14005,-1.09037 z m -20.139858,0.19844 -2.927986,0.2191 -0.143661,1.09038 2.960026,-0.21808 z m 5.780528,0.1018 -0.0558,1.01234 h 9.14673 l -0.0563,-1.01234 z m 14.51797,1.28519 0.10904,1.09554 2.92644,0.21911 -0.14056,-1.09399 z m -20.461278,0.19844 -2.974496,0.22066 -0.144177,1.09399 3.006535,-0.21911 z m 5.855968,0.10387 -0.0558,1.01234 h 9.32192 l -0.0563,-1.01234 z m 14.76396,1.28726 0.10904,1.09399 2.97139,0.21807 -0.14004,-1.09089 z m -20.782709,0.19844 -3.021521,0.22117 -0.143661,1.09089 3.053044,-0.21807 z m 5.931419,0.1018 -0.0558,1.01234 h 9.4971 l -0.0563,-1.01234 z m 15.00994,1.28777 0.10955,1.09865 3.01532,0.21032 -0.13952,-1.08882 z m -21.104657,0.19844 -3.066996,0.22014 -0.14366,1.08883 3.098002,-0.21033 z m 6.007387,0.10129 -0.0558,1.01234 h 9.67228 l -0.0563,-1.01234 z m 15.25591,1.29294 0.10853,1.08934 3.06182,0.21601 -0.14004,-1.09296 z m -21.426077,0.19844 -3.113505,0.21239 -0.144178,1.09296 3.146061,-0.21601 z m 6.082837,0.0961 -0.0558,1.01234 h 9.84747 l -0.0563,-1.01234 z m 15.50137,1.28881 0.10956,1.10071 3.10679,0.20877 -0.14005,-1.09141 z m -21.746988,0.19844 -3.160531,0.21807 -0.144177,1.09141 3.19257,-0.20878 z m 6.158278,0.10025 -0.0558,1.01234 h 10.02265 l -0.0563,-1.01234 z m 15.74788,1.29553 0.10904,1.09554 3.15226,0.21084 -0.14056,-1.09503 z m -22.069456,0.19843 -3.206522,0.21136 -0.144178,1.09502 3.238562,-0.21084 z m 6.234246,0.0935 -0.0558,1.01234 h 10.19731 l -0.0558,-1.01234 z m 15.99385,1.29759 0.10853,1.08883 3.19773,0.21497 -0.14004,-1.09141 z m -22.391393,0.19844 -3.253032,0.21239 -0.14366,1.09141 3.285587,-0.21498 z m 6.314993,0.65884 -0.09815,1.1323 h 10.44829 l -0.0835,-1.09722 z m 16.23402,0.72509 0.0661,0.66197 0.11628,0.007 3.10885,0.16536 -0.0796,-0.61701 z m -22.71076,0.19843 -3.300574,0.21808 -0.08113,0.61701 3.19412,-0.16536 0.119889,-0.007 z" /><g
         id="g181"
         style="display:inline;opacity:1;fill:none;stroke:url(#linearGradient200);fill-opacity:1;stroke-opacity:1;stroke-width:0.2;stroke-dasharray:none"><ellipse
           style="display:inline;opacity:1;fill:none;fill-opacity:1;fill-rule:evenodd;stroke:url(#linearGradient200);stroke-width:1.05833;stroke-dasharray:none;stroke-opacity:1"
           id="path71"
           cx="105.29906"
           cy="142.74867"
           rx="58.526894"
           ry="59.585228" /><ellipse
           style="display:inline;opacity:1;fill:none;fill-opacity:1;fill-rule:evenodd;stroke:url(#linearGradient200);stroke-width:1.05833;stroke-dasharray:none;stroke-opacity:1"
           id="ellipse71"
           ry="61.433418"
           rx="60.304237"
           cy="142.74867"
           cx="105.29906" /></g><path
         id="path8"
         style="display:inline;opacity:1;fill:url(#linearGradient189);fill-opacity:1;stroke:url(#linearGradient194);stroke-width:0.2;stroke-dasharray:none"
         d="m 186.08477,110.20206 -6.50917,1.63297 -5.68182,1.35703 -11.14868,2.61327 -7.44915,1.69137 -11.84062,2.60243 -9.43354,2.03295 -12.85141,2.84634 -0.0667,0.9002 -0.57878,0.31523 0.005,0.97203 0.59842,0.19534 v 0.28784 l 11.1094,1.94355 10.99519,2.27686 13.9392,2.82928 9.26972,1.90945 9.38444,2.18488 10.3048,2.41536 0.25321,-0.20723 -0.046,-30.73042 z m -1.08469,1.3963 v 1.79472 l -44.35543,8.63616 z m 0,2.06809 v 1.6862 l -44.32391,7.35717 z m 0,1.95337 v 1.86396 l -44.29291,5.90714 z m 0,2.14405 v 1.98179 l -44.26087,4.32635 z m 0,2.26549 v 2.38384 l -44.22986,2.33991 z m 0,2.68357 v 1.80453 l -44.19782,0.91674 z m -0.008,2.1208 0.008,1.9761 -44.16733,-0.69505 L 185,124.83373 Z m -44.18955,1.8774 44.19782,0.41134 v 1.77612 z m -0.032,0.68213 44.23813,1.83813 -0.008,1.85932 -44.22986,-3.69745 z m -0.031,0.68161 44.2526,3.3352 0.008,1.96318 z m -0.032,0.68213 44.29291,4.99762 v 1.64745 z m -0.031,0.68109 44.32391,6.36189 v 1.80557 z m -0.032,0.68213 44.35587,7.85844 8e-5,1.58957 z" /></g><g
       id="g135"
       style="display:inline"><g
         id="g170"><path
           style="opacity:1;fill:#1f1000;fill-opacity:1;fill-rule:evenodd;stroke:none;stroke-width:0;stroke-dasharray:none;stroke-opacity:1"
           d="m 127.7689,183.32831 0.38402,-0.0415 -0.0784,0.15947 -0.0128,0.0592 -1.19388,-0.0831 -1.43041,-0.11575 -9.72004,-1.3746 -4.3995,-0.0234 h -7.02752 -6.103768 l -3.928864,0.0702 -9.733452,1.39631 -2.745152,0.18095 -0.03437,-0.12841 -0.03579,-0.12275 0.334139,0.0362 2.529354,-0.16551 9.743732,-1.43081 9.155651,-0.0468 9.37782,0.0117 h 2.87649 l 9.72861,1.40317 1.66041,0.15781 0.45604,0.0468 z"
           id="path247" /><path
           style="opacity:1;fill:#1f1000;fill-opacity:1;fill-rule:evenodd;stroke:none;stroke-width:0;stroke-dasharray:none;stroke-opacity:1"
           d="m 119.56135,126.75257 0.0117,-0.90036 0.68989,0.10523 0.86237,1.66042 -1.61656,-0.51454 z"
           id="path248" /><path
           d="m 100.05076,176.79042 -0.0105,0.19546 10.19757,-4.9e-4 -0.011,-0.19606"
           style="fill:#1f1000;fill-rule:evenodd;stroke-width:0"
           id="path81" /><path
           d="m 100.13773,175.20574 -0.0127,0.19207 10.02592,-0.002 -0.0118,-0.18791"
           style="fill:#1f1000;fill-rule:evenodd;stroke-width:0"
           id="path82" /><path
           d="m 100.21401,173.80772 9.84792,0.002 -0.01,-0.18493 -9.82646,-1.7e-4"
           style="fill:#1f1000;fill-rule:evenodd;stroke-width:0"
           id="path83" /><path
           d="m 100.303,172.22279 9.67096,-7.3e-4 -0.0111,-0.19743 -9.64949,6e-5"
           style="fill:#1f1000;fill-rule:evenodd;stroke-width:0"
           id="path84" /><path
           d="m 100.39964,170.4486 -0.01,0.18513 9.49709,1.6e-4 -0.0108,-0.18409"
           style="fill:#1f1000;fill-rule:evenodd;stroke-width:0"
           id="path85" /><path
           d="m 100.4866,168.87804 -0.009,0.16873 9.32012,3.3e-4 -0.009,-0.16977"
           style="fill:#1f1000;fill-rule:evenodd;stroke-width:0"
           id="path86" /><path
           d="m 100.57561,167.26718 -0.0107,0.19053 9.14626,0.002 -0.0115,-0.19494"
           style="fill:#1f1000;fill-rule:evenodd;stroke-width:0"
           id="path87" /><path
           d="m 100.65946,165.70385 -0.008,0.16893 8.97139,0.001 -0.01,-0.1722"
           style="fill:#1f1000;fill-rule:evenodd;stroke-width:0"
           id="path88" /><path
           d="m 100.74747,164.12295 -0.008,0.1618 8.79545,3e-5 -0.01,-0.16186"
           style="fill:#1f1000;fill-rule:evenodd;stroke-width:0"
           id="path89" /><path
           d="m 100.83647,162.51519 -0.01,0.18053 8.62059,3e-4 -0.01,-0.1784"
           style="fill:#1f1000;fill-rule:evenodd;stroke-width:0"
           id="path90" /><path
           d="m 100.92344,160.9436 -0.01,0.16513 8.4454,0.003 -0.009,-0.16777"
           style="fill:#1f1000;fill-rule:evenodd;stroke-width:0"
           id="path91" /><path
           d="m 101.00937,159.37305 -0.009,0.14869 8.27097,-6.9e-4 -0.009,-0.14876"
           style="fill:#1f1000;fill-rule:evenodd;stroke-width:0"
           id="path92" /><path
           d="m 101.09734,157.76424 -0.009,0.17051 8.09489,0.001 -0.01,-0.17117"
           style="fill:#1f1000;fill-rule:evenodd;stroke-width:0"
           id="path93" /><path
           d="m 101.18533,156.17095 -0.009,0.17684 7.91896,-0.002 -0.0101,-0.17427"
           style="fill:#1f1000;fill-rule:evenodd;stroke-width:0"
           id="path94" /><path
           d="m 101.27127,154.58588 -0.008,0.17284 7.74303,-8e-4 -0.009,-0.17116"
           style="fill:#1f1000;fill-rule:evenodd;stroke-width:0"
           id="path95" /><path
           d="m 101.35824,152.99879 -0.009,0.17293 7.5692,-7e-4 -0.008,-0.17223"
           style="fill:#1f1000;fill-rule:evenodd;stroke-width:0"
           id="path96" /><path
           d="m 101.4462,151.421 -0.009,0.16373 7.39323,-1e-4 -0.008,-0.16396"
           style="fill:#1f1000;fill-rule:evenodd;stroke-width:0"
           id="path97" /><path
           d="m 101.53288,149.84211 -0.0101,0.15693 7.22046,-0.002 -0.009,-0.1557"
           style="fill:#1f1000;fill-rule:evenodd;stroke-width:0"
           id="path98" /><path
           d="m 101.62014,148.24681 -0.0101,0.16191 7.04451,0.001 -0.008,-0.16293"
           style="fill:#1f1000;fill-rule:evenodd;stroke-width:0"
           id="path99" /><path
           d="m 101.7081,146.64628 -0.01,0.17647 6.86857,-9.7e-4 -0.009,-0.17739"
           style="fill:#1f1000;fill-rule:evenodd;stroke-width:0"
           id="path100" /><path
           d="m 101.79586,145.04967 -0.009,0.18999 6.69394,3e-5 -0.0112,-0.19083"
           style="fill:#1f1000;fill-rule:evenodd;stroke-width:0"
           id="path101" /><path
           d="m 101.88307,143.47519 -0.0101,0.16637 c 2.1729,-0.0236 4.34856,0.0411 6.51983,0.004 l -0.01,-0.17119"
           style="fill:#1f1000;fill-rule:evenodd;stroke-width:0"
           id="path102" /><path
           d="m 101.97,141.88189 -0.01,0.19232 6.34492,9.7e-4 -0.0105,-0.1939"
           style="fill:#1f1000;fill-rule:evenodd;stroke-width:0"
           id="path103" /><path
           d="m 102.058,140.2855 -0.0111,0.20585 6.16903,-0.0213 v -0.003 l -0.01,-0.18153"
           style="fill:#1f1000;fill-rule:evenodd;stroke-width:0"
           id="path104" /><path
           style="fill:#1f1000;fill-rule:evenodd;stroke-width:0"
           d="m 94.378412,181.96143 0.02375,2.94299 -0.224412,-0.007 -0.01755,-2.93469 z"
           id="path108" /><path
           style="fill:#1f1000;fill-rule:evenodd;stroke-width:0"
           d="m 98.441744,181.88029 0.02375,2.97807 -0.224412,-0.007 -0.01755,-2.96967 z"
           id="path110" /><path
           style="fill:#1f1000;fill-rule:evenodd;stroke-width:0"
           d="m 115.94038,181.89198 0.0238,2.97807 -0.22441,-0.007 -0.0175,-2.96967 z"
           id="path111" /><path
           style="fill:#1f1000;fill-rule:evenodd;stroke-width:0"
           d="m 112.14014,181.88614 0.0238,2.97807 -0.22441,-0.007 -0.0175,-2.96967 z"
           id="path112" /><path
           style="fill:#1f1000;fill-rule:evenodd;stroke-width:0"
           d="m 114.86427,181.896 0.0432,2.95378 -0.0968,3e-5 -0.0521,-2.95378 z"
           id="path113" /><path
           style="fill:#1f1000;fill-rule:evenodd;stroke-width:0"
           d="m 113.80683,181.91714 0.052,2.91845 -0.10873,7e-5 -0.0443,-2.91949 z"
           id="path114" /><path
           style="fill:#1f1000;fill-rule:evenodd;stroke-width:0"
           d="m 112.73439,181.90331 0.0585,2.92447 -0.12402,-10e-4 -0.0443,-2.92301 z"
           id="path115" /><path
           style="fill:#1f1000;fill-rule:evenodd;stroke-width:0"
           d="m 95.230327,181.94023 0.04403,2.96814 -0.10645,0.002 -0.0443,-2.96976 z"
           id="path116" /><path
           style="fill:#1f1000;fill-rule:evenodd;stroke-width:0"
           d="m 96.407667,181.91887 0.04713,3.00426 -0.112651,3e-5 -0.0443,-3.00482 z"
           id="path117" /><path
           style="fill:#1f1000;fill-rule:evenodd;stroke-width:0"
           d="m 97.56839,181.90789 0.0461,2.99257 -0.10955,-1e-4 -0.0443,-2.99313 z"
           id="path118" /><path
           style="fill:#1f1000;fill-rule:evenodd;stroke-width:0"
           d="m 83.852015,183.30573 0.0287,2.56678 -0.271193,-0.006 -0.02121,-2.55954 z"
           id="path119" /><path
           style="fill:#1f1000;fill-rule:evenodd;stroke-width:0"
           d="m 127.35497,183.34222 0.0306,2.59572 -0.28968,-0.006 -0.0226,-2.5884 z"
           id="path120" /><path
           style="fill:#1f1000;fill-rule:evenodd;stroke-width:0"
           d="m 81.715964,185.76151 -0.0356,0.025 -0.0146,0.0397 0.0021,0.038 0.0026,0.037 0.02184,0.0322 0.04282,0.0242 0.104558,0.006 0.166626,-0.006 0.219244,0.006 0.38587,-8e-5 0.684546,-0.0175 0.440912,-0.0147 7.362552,-0.71445 2.753578,-0.26113 0.413741,-0.0184 2.884436,-0.004 1.455797,-0.0476 6.746866,0.008 2.56315,-0.008 4.08451,-0.008 0.7028,0.0165 2.10013,-0.0165 0.24804,0.008 1.00046,0.0331 3.25768,0.31419 1.71979,0.1819 4.44831,0.41341 1.13083,0.10941 0.83701,0.0248 0.55604,0.0301 0.0355,-0.007 0.0306,-0.0202 0.0296,-0.0287 0.0142,-0.0468 -0.005,-0.0465 -0.0119,-0.0387 -0.0314,-0.0212 -0.50125,-0.03 -1.00873,-0.0165 -10.6287,-1.03421 -4.79413,-0.0234 -17.274055,0.0881 -10.08767,0.98765 z"
           id="path121" /><path
           style="display:inline;opacity:1;fill:#1f1000;fill-rule:evenodd;stroke-width:0"
           d="m 72.301855,188.32742 -0.02267,0.0949 0.03266,0.0685 0.09925,0.0475 0.167431,0.006 3.337355,-0.36185 1.205328,-0.22566 4.188567,-0.39187 11.103106,-0.48564 -0.01245,-0.3596 -11.107242,0.50578 -4.24987,0.42994 -1.174088,0.19844 -3.324686,0.40334 -0.147265,0.0226 z"
           id="path124" /><path
           style="display:inline;opacity:1;fill:#1f1000;fill-rule:evenodd;stroke-width:0"
           d="m 92.473417,188.0789 0.01808,0.36309 -11.130013,0.42649 -0.129971,-0.0204 -0.09278,-0.0635 -0.04961,-0.0773 0.04547,-0.089 0.103803,-0.0636 0.112223,-0.0173 z"
           id="path125" /><path
           style="display:inline;opacity:1;fill:#1f1000;fill-rule:evenodd;stroke-width:0"
           d="m 92.774139,186.364 0.01829,-0.14915 0.03869,-0.0725 0.286202,-0.0117 0.04312,0.09 0.01695,0.1433 v 3.531 l -0.02088,0.11 -0.04312,0.06 h -0.280292 l -0.03672,-0.06 -0.02224,-0.11 z"
           id="path127" /><path
           style="display:inline;opacity:1;fill:#1f1000;fill-rule:evenodd;stroke-width:0"
           d="m 92.556099,189.40181 0.01808,0.36309 -11.130013,0.42649 -0.129971,-0.0204 -0.09278,-0.0635 -0.04961,-0.0773 0.04547,-0.089 0.103803,-0.0636 0.112223,-0.0173 z"
           id="path128" /><path
           style="display:inline;opacity:1;fill:#1f1000;fill-rule:evenodd;stroke-width:0"
           d="m 138.16669,188.16669 0.0216,0.0876 -0.0312,0.0632 -0.0947,0.0438 -0.15965,0.006 -3.1823,-0.33402 -1.14932,-0.20831 -3.99397,-0.36173 -10.58723,-0.44829 0.012,-0.33195 10.59119,0.46688 4.05242,0.39688 1.11954,0.18318 3.17021,0.37232 0.14042,0.0209 z"
           id="path132" /><path
           style="display:inline;opacity:1;fill:#1f1000;fill-rule:evenodd;stroke-width:0"
           d="m 118.92855,188.04181 -0.0171,0.36309 10.53651,0.42649 0.12304,-0.0204 0.0879,-0.0635 0.047,-0.0773 -0.0431,-0.089 -0.0983,-0.0636 -0.10623,-0.0173 z"
           id="path133" /><path
           style="display:inline;opacity:1;fill:#1f1000;fill-rule:evenodd;stroke-width:0"
           d="m 118.63639,186.32691 -0.0177,-0.14915 -0.0374,-0.0725 -0.27687,-0.0117 -0.0417,0.09 -0.0163,0.1433 v 3.531 l 0.0203,0.11 0.0417,0.06 h 0.27117 l 0.0354,-0.06 0.0214,-0.11 z"
           id="path134" /><path
           style="display:inline;opacity:1;fill:#1f1000;fill-rule:evenodd;stroke-width:0"
           d="m 118.84605,189.36472 -0.0174,0.36309 10.64118,0.42649 0.12427,-0.0204 0.0887,-0.0635 0.0475,-0.0773 -0.0435,-0.089 -0.0993,-0.0636 -0.10728,-0.0173 z"
           id="path135" /><path
           style="display:inline;fill:#1f1000;fill-opacity:1;fill-rule:evenodd;stroke:none;stroke-width:0;stroke-dasharray:none;stroke-opacity:1"
           d="m 114.47733,140.26812 -2.10167,-0.21492 0.016,0.20449 2.11325,0.20869 z"
           id="path28" /><path
           style="display:inline;fill:#1f1000;fill-opacity:1;fill-rule:evenodd;stroke:none;stroke-width:0;stroke-dasharray:none;stroke-opacity:1"
           d="m 119.51267,179.49362 -3.22078,-0.1971 0.021,0.21639 3.22262,0.17064 z"
           id="path29" /><path
           d="m 119.36976,178.37532 -3.19294,-0.23096 0.02,0.2126 3.19732,0.21447"
           style="display:inline;fill:#1f1000;fill-opacity:1;fill-rule:evenodd;stroke:none;stroke-width:0;stroke-dasharray:none;stroke-opacity:1"
           id="path30" /><path
           d="m 119.17013,176.80074 -3.14916,-0.23904 0.0183,0.21466 3.15322,0.20897"
           style="display:inline;fill:#1f1000;fill-opacity:1;fill-rule:evenodd;stroke:none;stroke-width:0;stroke-dasharray:none;stroke-opacity:1"
           id="path31" /><path
           d="m 118.95993,175.17894 -3.09943,-0.21127 0.0205,0.22012 3.10692,0.20736"
           style="display:inline;fill:#1f1000;fill-opacity:1;fill-rule:evenodd;stroke:none;stroke-width:0;stroke-dasharray:none;stroke-opacity:1"
           id="path32" /><path
           d="m 118.75937,173.61954 -3.05571,-0.21505 0.0161,0.18666 3.06332,0.21554"
           style="display:inline;fill:#1f1000;fill-opacity:1;fill-rule:evenodd;stroke:none;stroke-width:0;stroke-dasharray:none;stroke-opacity:1"
           id="path33" /><path
           d="m 118.55373,172.0173 -3.00848,-0.19854 0.0194,0.18913 3.01491,0.21068"
           style="display:inline;fill:#1f1000;fill-opacity:1;fill-rule:evenodd;stroke:none;stroke-width:0;stroke-dasharray:none;stroke-opacity:1"
           id="path34" /><path
           d="m 118.34917,170.41669 -2.96445,-0.20894 0.0206,0.20665 2.97184,0.21972"
           style="display:inline;fill:#1f1000;fill-opacity:1;fill-rule:evenodd;stroke:none;stroke-width:0;stroke-dasharray:none;stroke-opacity:1"
           id="path35" /><path
           d="m 118.14578,168.83779 -2.92054,-0.22645 0.0206,0.2168 2.92669,0.21653"
           style="display:inline;fill:#1f1000;fill-opacity:1;fill-rule:evenodd;stroke:none;stroke-width:0;stroke-dasharray:none;stroke-opacity:1"
           id="path36" /><path
           d="m 117.93844,167.22166 -2.8703,-0.18407 0.0192,0.20119 2.88216,0.21856"
           style="display:inline;fill:#1f1000;fill-opacity:1;fill-rule:evenodd;stroke:none;stroke-width:0;stroke-dasharray:none;stroke-opacity:1"
           id="path37" /><path
           d="m 117.73918,165.6665 -2.82891,-0.22074 0.0203,0.21097 2.83564,0.21122"
           style="display:inline;fill:#1f1000;fill-opacity:1;fill-rule:evenodd;stroke:none;stroke-width:0;stroke-dasharray:none;stroke-opacity:1"
           id="path38" /><path
           d="m 117.5318,164.04937 -2.78378,-0.218 0.0235,0.23589 2.7892,0.21544"
           style="display:inline;fill:#1f1000;fill-opacity:1;fill-rule:evenodd;stroke:none;stroke-width:0;stroke-dasharray:none;stroke-opacity:1"
           id="path39" /><path
           d="m 117.3284,162.46219 -2.73763,-0.21691 0.0194,0.23056 2.74726,0.21851"
           style="display:inline;fill:#1f1000;fill-opacity:1;fill-rule:evenodd;stroke:none;stroke-width:0;stroke-dasharray:none;stroke-opacity:1"
           id="path40" /><path
           d="m 117.12373,160.87586 -2.69132,-0.21356 0.0217,0.23106 2.70014,0.21569"
           style="display:inline;fill:#1f1000;fill-opacity:1;fill-rule:evenodd;stroke:none;stroke-width:0;stroke-dasharray:none;stroke-opacity:1"
           id="path41" /><path
           d="m 116.92159,159.29301 -2.64811,-0.22097 0.023,0.23352 2.65302,0.21626"
           style="display:inline;fill:#1f1000;fill-opacity:1;fill-rule:evenodd;stroke:none;stroke-width:0;stroke-dasharray:none;stroke-opacity:1"
           id="path42" /><path
           d="m 116.71592,157.6901 -2.60036,-0.20933 0.0219,0.23729 2.60928,0.21324"
           style="display:inline;fill:#1f1000;fill-opacity:1;fill-rule:evenodd;stroke:none;stroke-width:0;stroke-dasharray:none;stroke-opacity:1"
           id="path43" /><path
           d="m 116.51474,156.12692 -2.55525,-0.20257 0.0197,0.20703 2.56421,0.21259"
           style="display:inline;fill:#1f1000;fill-opacity:1;fill-rule:evenodd;stroke:none;stroke-width:0;stroke-dasharray:none;stroke-opacity:1"
           id="path44" /><path
           d="m 116.3086,154.52088 -2.51211,-0.22176 0.0228,0.24026 2.5194,0.21949"
           style="display:inline;fill:#1f1000;fill-opacity:1;fill-rule:evenodd;stroke:none;stroke-width:0;stroke-dasharray:none;stroke-opacity:1"
           id="path45" /><path
           d="m 116.10427,152.92601 -2.46695,-0.22616 0.0219,0.25239 2.47555,0.21724"
           style="display:inline;fill:#1f1000;fill-opacity:1;fill-rule:evenodd;stroke:none;stroke-width:0;stroke-dasharray:none;stroke-opacity:1"
           id="path46" /><path
           d="m 115.90016,151.351 -2.42,-0.22665 0.0243,0.24058 2.42848,0.22032"
           style="display:inline;fill:#1f1000;fill-opacity:1;fill-rule:evenodd;stroke:none;stroke-width:0;stroke-dasharray:none;stroke-opacity:1"
           id="path47" /><path
           d="m 115.69491,149.75021 -2.37052,-0.19829 0.021,0.22347 2.38252,0.22253"
           style="display:inline;fill:#1f1000;fill-opacity:1;fill-rule:evenodd;stroke:none;stroke-width:0;stroke-dasharray:none;stroke-opacity:1"
           id="path48" /><path
           d="m 115.4956,148.18716 -2.33017,-0.2162 0.0231,0.22061 2.33703,0.2187"
           style="display:inline;fill:#1f1000;fill-opacity:1;fill-rule:evenodd;stroke:none;stroke-width:0;stroke-dasharray:none;stroke-opacity:1"
           id="path49" /><path
           d="m 114.88423,143.42169 -2.19532,-0.2309 0.0228,0.23766 2.201,0.21778"
           style="display:inline;fill:#1f1000;fill-opacity:1;fill-rule:evenodd;stroke:none;stroke-width:0;stroke-dasharray:none;stroke-opacity:1"
           id="path51" /><path
           d="m 114.68306,141.8622 -2.14838,-0.21863 0.0188,0.20058 2.15504,0.21166"
           style="display:inline;fill:#1f1000;fill-opacity:1;fill-rule:evenodd;stroke:none;stroke-width:0;stroke-dasharray:none;stroke-opacity:1"
           id="path52" /><path
           d="m 115.28929,146.58613 -2.28247,-0.21249 0.0197,0.22875 2.29396,0.2209"
           style="display:inline;fill:#1f1000;fill-opacity:1;fill-rule:evenodd;stroke:none;stroke-width:0;stroke-dasharray:none;stroke-opacity:1"
           id="path53" /><path
           d="m 115.08624,145.00416 -2.23801,-0.22357 0.0209,0.23678 2.24557,0.21398"
           style="display:inline;fill:#1f1000;fill-opacity:1;fill-rule:evenodd;stroke:none;stroke-width:0;stroke-dasharray:none;stroke-opacity:1"
           id="path54" /><path
           style="display:inline;fill:#1f1000;fill-rule:evenodd;stroke-width:0"
           d="m 102.14628,138.686 -0.013,0.19703 5.99549,-3e-5 -0.0114,-0.19601 z"
           id="path55" /><path
           style="display:inline;fill:#1f1000;fill-rule:evenodd;stroke-width:0"
           d="m 99.932352,179.06597 -0.02059,0.1929 10.451498,3e-5 -0.0147,-0.1991 z"
           id="path56" /><path
           style="display:inline;fill:#1f1000;fill-rule:evenodd;stroke-width:0"
           d="m 126.39614,183.27206 0.0307,2.59572 -0.28968,-0.006 -0.0226,-2.5884 z"
           id="path122" /><path
           style="display:inline;fill:#1f1000;fill-rule:evenodd;stroke-width:0"
           d="m 82.861172,183.36702 0.02736,2.56678 -0.258488,-0.006 -0.02021,-2.55954 z"
           id="path123" /><path
           style="display:inline;fill:#1f1000;fill-opacity:1;fill-rule:evenodd;stroke:none;stroke-width:0;stroke-dasharray:none;stroke-opacity:1"
           d="m 95.357219,140.43308 2.161169,-0.22012 -0.02483,0.2432 -2.167622,0.2088 z"
           id="path251" /><path
           style="display:inline;fill:#1f1000;fill-opacity:1;fill-rule:evenodd;stroke:none;stroke-width:0;stroke-dasharray:none;stroke-opacity:1"
           d="m 90.183522,179.66936 3.308949,-0.18573 -0.02359,0.22776 -3.312964,0.17477 z"
           id="path252" /><path
           d="m 90.330618,178.54692 3.278986,-0.21442 -0.02155,0.22293 -3.286683,0.21447"
           style="display:inline;fill:#1f1000;fill-opacity:1;fill-rule:evenodd;stroke:none;stroke-width:0;stroke-dasharray:none;stroke-opacity:1"
           id="path411" /><path
           d="m 90.538441,176.97491 3.234065,-0.22048 -0.02039,0.22197 -3.240978,0.20741"
           style="display:inline;fill:#1f1000;fill-opacity:1;fill-rule:evenodd;stroke:none;stroke-width:0;stroke-dasharray:none;stroke-opacity:1"
           id="path412" /><path
           d="m 90.753074,175.35054 3.182335,-0.18867 -0.0211,0.22304 -3.196406,0.20871"
           style="display:inline;fill:#1f1000;fill-opacity:1;fill-rule:evenodd;stroke:none;stroke-width:0;stroke-dasharray:none;stroke-opacity:1"
           id="path413" /><path
           d="m 90.95648,173.80975 3.138691,-0.21299 -0.01875,0.19493 -3.146529,0.21451"
           style="display:inline;fill:#1f1000;fill-opacity:1;fill-rule:evenodd;stroke:none;stroke-width:0;stroke-dasharray:none;stroke-opacity:1"
           id="path415" /><path
           d="m 91.168335,172.20234 3.090418,-0.19648 -0.02199,0.19947 -3.097015,0.21275"
           style="display:inline;fill:#1f1000;fill-opacity:1;fill-rule:evenodd;stroke:none;stroke-width:0;stroke-dasharray:none;stroke-opacity:1"
           id="path416" /><path
           d="m 91.377011,170.61206 3.045373,-0.2079 -0.02113,0.21182 -3.052945,0.21661"
           style="display:inline;fill:#1f1000;fill-opacity:1;fill-rule:evenodd;stroke:none;stroke-width:0;stroke-dasharray:none;stroke-opacity:1"
           id="path417" /><path
           d="m 91.586584,169.03316 2.999401,-0.22438 -0.02121,0.21783 -3.00677,0.21964"
           style="display:inline;fill:#1f1000;fill-opacity:1;fill-rule:evenodd;stroke:none;stroke-width:0;stroke-dasharray:none;stroke-opacity:1"
           id="path418" /><path
           d="m 91.797117,167.4253 2.952185,-0.2037 -0.02079,0.21565 -2.962225,0.21754"
           style="display:inline;fill:#1f1000;fill-opacity:1;fill-rule:evenodd;stroke:none;stroke-width:0;stroke-dasharray:none;stroke-opacity:1"
           id="path419" /><path
           d="m 92.004724,165.85464 2.905546,-0.2135 -0.01855,0.20993 -2.916744,0.21846"
           style="display:inline;fill:#1f1000;fill-opacity:1;fill-rule:evenodd;stroke:none;stroke-width:0;stroke-dasharray:none;stroke-opacity:1"
           id="path420" /><path
           d="m 92.218358,164.23751 2.85725,-0.21077 -0.02634,0.23486 -2.8639,0.21958"
           style="display:inline;fill:#1f1000;fill-opacity:1;fill-rule:evenodd;stroke:none;stroke-width:0;stroke-dasharray:none;stroke-opacity:1"
           id="path421" /><path
           d="m 92.427894,162.64413 2.811179,-0.20141 -0.0242,0.23366 -2.819999,0.21748"
           style="display:inline;fill:#1f1000;fill-opacity:1;fill-rule:evenodd;stroke:none;stroke-width:0;stroke-dasharray:none;stroke-opacity:1"
           id="path422" /><path
           d="m 92.636636,161.06193 2.763896,-0.19909 -0.02118,0.22693 -2.775064,0.21673"
           style="display:inline;fill:#1f1000;fill-opacity:1;fill-rule:evenodd;stroke:none;stroke-width:0;stroke-dasharray:none;stroke-opacity:1"
           id="path423" /><path
           d="m 92.846069,159.47495 2.719589,-0.21064 -0.02259,0.23972 -2.728892,0.2173"
           style="display:inline;fill:#1f1000;fill-opacity:1;fill-rule:evenodd;stroke:none;stroke-width:0;stroke-dasharray:none;stroke-opacity:1"
           id="path424" /><path
           d="m 93.056891,157.87927 2.669788,-0.20416 -0.02245,0.24349 -2.680018,0.21221"
           style="display:inline;fill:#1f1000;fill-opacity:1;fill-rule:evenodd;stroke:none;stroke-width:0;stroke-dasharray:none;stroke-opacity:1"
           id="path425" /><path
           d="m 93.263209,156.31816 2.624706,-0.2036 -0.01815,0.21426 -2.636047,0.21363"
           style="display:inline;fill:#1f1000;fill-opacity:1;fill-rule:evenodd;stroke:none;stroke-width:0;stroke-dasharray:none;stroke-opacity:1"
           id="path426" /><path
           d="m 93.472494,154.71935 2.57946,-0.22072 -0.02029,0.23922 -2.591213,0.21949"
           style="display:inline;fill:#1f1000;fill-opacity:1;fill-rule:evenodd;stroke:none;stroke-width:0;stroke-dasharray:none;stroke-opacity:1"
           id="path428" /><path
           d="m 93.684632,153.11622 2.53367,-0.21996 -0.02052,0.25445 -2.547853,0.21724"
           style="display:inline;fill:#1f1000;fill-opacity:1;fill-rule:evenodd;stroke:none;stroke-width:0;stroke-dasharray:none;stroke-opacity:1"
           id="path429" /><path
           d="m 93.89444,151.53708 2.485502,-0.22459 -0.02388,0.25919 -2.496332,0.21204"
           style="display:inline;fill:#1f1000;fill-opacity:1;fill-rule:evenodd;stroke:none;stroke-width:0;stroke-dasharray:none;stroke-opacity:1"
           id="path430" /><path
           d="m 94.103417,149.94662 2.438145,-0.21483 -0.02374,0.24311 -2.446215,0.22046"
           style="display:inline;fill:#1f1000;fill-opacity:1;fill-rule:evenodd;stroke:none;stroke-width:0;stroke-dasharray:none;stroke-opacity:1"
           id="path431" /><path
           d="m 94.309501,148.3815 2.392046,-0.20896 -0.02047,0.21544 -2.401198,0.21869"
           style="display:inline;fill:#1f1000;fill-opacity:1;fill-rule:evenodd;stroke:none;stroke-width:0;stroke-dasharray:none;stroke-opacity:1"
           id="path432" /><path
           d="m 94.940156,143.60156 2.251321,-0.20196 -0.02325,0.23042 -2.260596,0.21187"
           style="display:inline;fill:#1f1000;fill-opacity:1;fill-rule:evenodd;stroke:none;stroke-width:0;stroke-dasharray:none;stroke-opacity:1"
           id="path435" /><path
           d="m 95.147399,142.02345 2.206233,-0.21684 -0.02287,0.23612 -2.214118,0.21081"
           style="display:inline;fill:#1f1000;fill-opacity:1;fill-rule:evenodd;stroke:none;stroke-width:0;stroke-dasharray:none;stroke-opacity:1"
           id="path436" /><path
           d="m 94.521659,146.78179 2.345394,-0.21691 -0.0233,0.23702 -2.35483,0.21997"
           style="display:inline;fill:#1f1000;fill-opacity:1;fill-rule:evenodd;stroke:none;stroke-width:0;stroke-dasharray:none;stroke-opacity:1"
           id="path459" /><path
           d="m 94.732744,145.1737 2.296665,-0.19567 -0.02144,0.24092 -2.308657,0.21087"
           style="display:inline;fill:#1f1000;fill-opacity:1;fill-rule:evenodd;stroke:none;stroke-width:0;stroke-dasharray:none;stroke-opacity:1"
           id="path460" /><path
           id="path50"
           style="display:inline;fill:#1f1000;fill-opacity:1;stroke-width:1"
           d="m 105.12175,99.507104 -0.0656,0.03411 0.34727,0.256315 0.21497,0.214971 0.091,0.22324 0.12402,0.40515 v 0.34726 l -0.0827,0.38034 -0.30592,0.34727 -0.29766,0.22324 -0.22324,0.13229 -0.23978,0.008 h -0.14883 l -0.0413,0.0413 v 0.0579 l 0.0165,0.0331 0.0579,0.008 0.0661,0.0165 0.28112,0.008 0.1819,-0.0413 0.14883,-0.0662 0.11575,-0.0661 0.17364,-0.091 0.0992,-0.0992 0.15709,-0.16537 0.0744,-0.11575 0.0909,-0.20671 0.0744,-0.17363 0.0413,-0.27285 0.008,-0.20671 0.008,-0.19844 -0.0331,-0.14056 -0.091,-0.19843 -0.0992,-0.18191 -0.1819,-0.190162 -0.12402,-0.132291 -0.1571,-0.08268 -0.14056,-0.05788 z m -3.16001,4.904096 -0.001,0.14469 0.20102,0.0589 h 5.07463 l 0.14779,-0.0589 0.002,-0.14469 z m 4.7258,0.68574 3.27681,5.01417 0.19017,0.73949 0.0289,0.14004 -10.996749,-0.046 3.721739,-5.60689 0.008,-0.22583 -5.139742,5.9955 -5.812049,1.76062 -0.715718,0.23616 -0.0062,0.18242 0.157614,-0.0212 0.288354,-0.0532 0.537435,-0.12816 5.92522,-1.64951 0.0093,-0.003 c 0.20428,-0.0101 0.838192,-0.0439 0.838192,-0.0439 l 3.607534,-0.0584 7.60005,-0.0822 6.88433,1.99265 h 0.76068 l -0.0372,-0.12041 -0.0858,-0.22221 -7.136,-1.91823 v -0.47749 l 4.16254,0.72244 z m -7.353035,7.21868 -6.713802,1.70326 1.008724,0.87643 5.622396,-1.33945 11.095967,-0.0661 5.55625,1.5875 0.89297,-0.81028 -6.4823,-1.91823 z m -0.09922,2.56316 -4.43177,0.89296 -0.231511,0.0827 -0.01654,0.13229 0.03307,7.67292 0.04961,0.19843 0.181901,0.0662 2.24069,-0.29714 0.264584,-0.0429 0.06976,-0.14625 -0.0863,-0.15193 -0.223242,-0.076 -1.835547,0.25115 -0.03307,-7.19336 4.034896,-0.77722 h 0.181901 l -0.01654,-0.34726 -0.03307,-0.21497 z m 11.421005,0 -0.14882,0.0496 -0.0331,0.21497 -0.0165,0.34726 h 0.1819 l 4.03489,0.77722 -0.0331,7.19336 -1.99936,-0.25115 -0.15038,0.076 -0.0367,0.15193 0.0894,0.14625 0.27802,0.0429 2.24896,0.29714 0.1819,-0.0662 0.0496,-0.19843 0.0331,-7.67292 -0.0165,-0.13229 -0.23151,-0.0827 z m -2.73368,0.14211 -0.84284,0.01 -5.14697,-0.009 -0.092,0.0284 -0.0331,0.077 -0.031,7.5923 0.0351,0.1018 0.10749,0.0403 h 2.81275 2.14974 l 0.77669,0.001 v 5.2e-4 l 0.31213,0.004 0.0997,-0.0171 0.0264,-0.077 -0.006,-6.64507 -0.002,-0.894 -0.0455,-0.1509 z m -5.72678,0.41806 5.42654,0.005 5.2e-4,7.06779 -2.87424,-0.0134 -2.57969,0.0165 z m 9.12761,8.83253 -12.941849,0.11008 -8.919352,2.51922 -0.03307,0.18604 0.148311,0.0754 8.942607,-2.43654 12.654523,-0.0739 8.87749,2.62258 0.14935,-0.12299 -0.0393,-0.21032 z m 9.84901,0.7059 -0.96532,1.02785 0.009,1.09761 0.91158,0.5457 z m -21.476728,0.9214 v 5.1e-4 H 99.59547 l -0.06356,0.0651 v 2.87115 h -0.09819 l -0.848527,-0.0331 v -2.74453 l -0.07028,-0.0631 h -0.112138 l -0.06356,0.0631 v 2.73523 l -0.608748,-0.0238 -0.221175,0.0589 v -2.5864 l -0.07028,-0.06 h -0.111621 l -0.06408,0.06 v 2.65255 l -0.747758,0.19947 0.03101,-2.52905 -3.500045,0.82734 0.01757,2.55024 -0.411861,0.12195 v -2.5032 l -0.07028,-0.0574 h -0.111621 l -0.06408,0.0574 v 2.57658 l -0.661458,0.19586 v -2.57452 l -0.06976,-0.0589 h -0.112137 l -0.06408,0.0589 v 2.64738 l -0.502295,0.14883 v -2.63137 l -0.06976,-0.0599 h -0.112138 l -0.06408,0.0599 v 2.70475 l -0.595829,0.17673 v -2.87734 l -0.06976,-0.0656 h -0.112138 l -0.06408,0.0656 v 2.95021 l -0.08268,0.0243 -0.132292,0.16537 0.08268,0.28112 0.198438,0.0496 6.895703,-2.05052 15.66003,-0.11576 7.09414,2.18281 0.11575,-0.0496 0.0662,-0.11575 -0.0331,-0.16536 -0.0196,-0.007 v -2.959 l -0.0703,-0.0661 h -0.11214 l -0.0636,0.0661 v 2.87321 l -0.44855,-0.15658 v -2.67373 l -0.0703,-0.0594 h -0.11214 l -0.0636,0.0594 v 2.58847 l -0.44855,-0.15658 v -2.63188 l -0.0703,-0.0579 h -0.11214 l -0.0636,0.0579 v 2.5461 l -0.71314,-0.24857 v -2.70888 l -0.0703,-0.0599 h -0.11213 l -0.0636,0.0599 v 2.6231 l -0.78755,-0.2744 0.032,-2.281 -3.49642,-1.11104 0.0315,2.38952 -0.32608,-0.0941 -0.30076,0.003 v -2.466 l -0.0703,-0.0558 h -0.11213 l -0.0636,0.0558 v 2.46806 l -0.71313,0.006 v -2.6045 l -0.0703,-0.0579 h -0.11214 l -0.0636,0.0579 v 2.60656 l -0.74621,0.006 V 125.963 l -0.0703,-0.0641 h -0.0956 v -5.1e-4 z m 0.08217,0.16381 h 10.337348 v 0.63149 H 99.777889 Z m 0,0.7953 h 10.337348 v 0.9002 H 99.777889 Z m 0,1.06402 h 10.337348 v 0.78341 H 99.777889 Z m -1.419035,2.62516 -9.553939,2.12545 v 0.0486 l 2.035535,0.15503 0.757577,0.11782 0.795817,0.12092 v 2.75384 l 0.10852,0.0512 h 0.173116 l 0.09922,-0.0512 v -2.76831 l 0.626318,-0.0832 v 2.63809 l 0.118339,0.0496 h 0.19017 l 0.10852,-0.0496 v -2.69286 l 0.626318,-0.0832 v 2.51871 l 0.108521,0.0481 h 0.173116 l 0.09922,-0.0481 v -2.56936 l 0.743624,-0.0987 v 2.32027 l 0.10852,0.0455 0.173116,-5.2e-4 0.09922,-0.045 v -2.37039 l 0.694014,-0.092 v 2.127 l 0.108521,0.0419 h 0.173116 l 0.09922,-0.0419 v -2.17764 l 0.49351,-0.0651 0.217041,-0.0775 v 2.08773 l 0.10852,0.0486 h 0.173116 l 0.09922,-0.0486 v -2.22312 l 0.727087,-0.2589 v 2.4474 l 0.108521,0.0501 h 0.173116 l 0.09922,-0.0501 v -2.56677 h 0.660941 v 2.53369 l 0.08578,0.0398 v 0.0103 h 9.791142 v -0.0398 l 0.0227,-0.0103 v -2.53369 h 0.66094 v 2.56677 l 0.0992,0.0501 h 0.17312 l 0.10852,-0.0501 v -2.56677 h 0.29869 l 0.4284,0.15968 v 2.44171 l 0.0992,0.0486 h 0.17311 l 0.10852,-0.0486 v -2.30012 l 0.71055,0.26459 v 2.26807 l 0.0992,0.0419 h 0.17312 l 0.10852,-0.0419 v -2.19521 l 0.69401,0.1049 v 2.42569 l 0.0992,0.045 0.17312,5.2e-4 0.10852,-0.0455 v -2.36781 l 0.74362,0.11266 v 2.60294 l 0.0992,0.0481 h 0.17312 l 0.10852,-0.0481 v -2.54507 l 0.62632,0.0951 v 2.70733 l 0.10852,0.0496 h 0.19017 l 0.11834,-0.0496 V 133.011 l 0.62631,0.0951 v 2.76262 l 0.0992,0.0512 h 0.17312 l 0.10852,-0.0512 v -2.71301 l 0.50488,0.0548 1.16478,-0.10077 1.65778,-0.17518 v -0.12867 l -8.91573,-2.25878 z m 1.906853,1.74821 h 9.13795 v 0.85318 h -9.13795 z m 0,1.017 h 9.13795 v 0.98908 h -9.13795 z m -1.739938,2.2102 -2.338875,0.39739 -4.625041,1.12551 1.099675,-0.0176 0.952396,-0.1633 -8.270296,44.55026 -0.01757,0.0646 -1.324984,0.0868 -0.06098,0.0289 -0.01654,0.0734 0.06201,0.0641 0.534851,0.005 0.731222,-0.0346 1.727026,-0.1111 8.787061,-1.07539 19.574523,-0.0703 7.1794,0.93534 1.50844,0.29714 1.79317,0.0418 0.0512,-0.0134 0.0289,-0.0367 -0.0108,-0.0444 -0.0439,-0.0145 -1.45014,-0.14843 -8.04954,-44.5067 0.65061,0.1819 1.01492,-0.046 -0.12402,-0.0351 -0.23306,-0.0496 -0.66663,-0.0351 -3.40237,-1.07591 -2.22157,-0.26871 z m -0.02377,0.30385 0.671794,0.0269 -3.441134,44.45723 -1.297079,0.10594 -7.418668,0.92397 -1.4056,0.12765 8.313705,-44.65671 0.695048,-0.11938 1.718758,-0.58187 z m 12.909288,0.0295 2.12803,0.23926 1.67845,0.54571 0.82838,0.23151 7.96718,44.45353 0.0272,0.15585 -1.43307,-0.33967 -7.23676,-0.92552 -0.83044,0.0129 -3.7667,-44.35285 z m -11.851472,0.0129 1.717722,0.0693 7.56956,0.002 1.63763,-0.0537 3.63389,44.34975 -1.9849,0.015 -5.03535,0.004 -8.805658,-0.004 -2.253609,0.0512 z m -6.095752,50.66254 v 0.39687 h 2.410189 v -0.39687 z m 3.018421,0 v 0.39687 h 1.508435 v -0.39687 z m 2.116667,0 v 0.39687 h 14.244086 v -0.39687 z m 14.874026,0 v 0.39687 h 1.47019 v -0.39687 z m 2.1177,0 v 0.39687 h 2.38021 v -0.39687 z m -22.123196,1.38906 v 0.39688 h 2.406571 v -0.39688 z m 3.014803,0 v 0.39688 h 1.508435 v -0.39688 z m 2.116667,0 v 0.39688 h 14.244086 v -0.39688 z m 14.874026,0 v 0.39688 h 1.47019 v -0.39688 z m 2.1177,0 v 0.39688 h 2.38383 v -0.39688 z m -22.126814,1.25677 v 0.39688 h 2.410189 v -0.39688 z m 3.018421,0 v 0.39688 h 1.508435 v -0.39688 z m 2.116667,0 v 0.39688 h 14.244086 v -0.39688 z m 14.874026,0 v 0.39688 h 1.47019 v -0.39688 z m 2.1177,0 v 0.39688 h 2.38021 v -0.39688 z" /></g></g></g><g
     id="layer2"
     style="display:inline;opacity:0.56" /></svg>
